<svg width="680" height="17" viewBox="0 0 680 17" fill="none" xmlns="http://www.w3.org/2000/svg">
<path d="M8.5 0.0501709L17 8.49996L8.5 16.9497L-4.66105e-06 8.49996L8.5 0.0501709Z" fill="#EEEEEE"/>
<path d="M25.4998 0.0501709L33.9998 8.49996L25.4998 16.9497L16.9998 8.49996L25.4998 0.0501709Z" fill="#EEEEEE"/>
<path d="M42.5002 0.0501709L51.0002 8.49996L42.5002 16.9497L34.0002 8.49996L42.5002 0.0501709Z" fill="#EEEEEE"/>
<path d="M59.5 0.0501709L68 8.49996L59.5 16.9497L51 8.49996L59.5 0.0501709Z" fill="#EEEEEE"/>
<path d="M76.5 0.0501709L85 8.49996L76.5 16.9497L68 8.49996L76.5 0.0501709Z" fill="#EEEEEE"/>
<path d="M93.5 0.0501709L102 8.49996L93.5 16.9497L85 8.49996L93.5 0.0501709Z" fill="#EEEEEE"/>
<path d="M110.5 0.0501709L119 8.49996L110.5 16.9497L102 8.49996L110.5 0.0501709Z" fill="#EEEEEE"/>
<path d="M127.5 0.0501709L136 8.49996L127.5 16.9497L119 8.49996L127.5 0.0501709Z" fill="#EEEEEE"/>
<path d="M144.5 0.0501709L153 8.49996L144.5 16.9497L136 8.49996L144.5 0.0501709Z" fill="#EEEEEE"/>
<path d="M161.5 0.0501709L170 8.49996L161.5 16.9497L153 8.49996L161.5 0.0501709Z" fill="#EEEEEE"/>
<path d="M178.5 0.0501709L187 8.49996L178.5 16.9497L170 8.49996L178.5 0.0501709Z" fill="#EEEEEE"/>
<path d="M195.5 0.0501709L204 8.49996L195.5 16.9497L187 8.49996L195.5 0.0501709Z" fill="#EEEEEE"/>
<path d="M212.5 0.0501709L221 8.49996L212.5 16.9497L204 8.49996L212.5 0.0501709Z" fill="#EEEEEE"/>
<path d="M229.5 0.0501709L238 8.49996L229.5 16.9497L221 8.49996L229.5 0.0501709Z" fill="#EEEEEE"/>
<path d="M246.5 0.0501709L255 8.49996L246.5 16.9497L238 8.49996L246.5 0.0501709Z" fill="#EEEEEE"/>
<path d="M263.5 0.0501709L272 8.49996L263.5 16.9497L255 8.49996L263.5 0.0501709Z" fill="#EEEEEE"/>
<path d="M280.5 0.0501709L289 8.49996L280.5 16.9497L272 8.49996L280.5 0.0501709Z" fill="#EEEEEE"/>
<path d="M297.5 0.0501709L306 8.49996L297.5 16.9497L289 8.49996L297.5 0.0501709Z" fill="#EEEEEE"/>
<path d="M314.5 0.0501709L323 8.49996L314.5 16.9497L306 8.49996L314.5 0.0501709Z" fill="#EEEEEE"/>
<path d="M331.5 0.0501709L340 8.49996L331.5 16.9497L323 8.49996L331.5 0.0501709Z" fill="#EEEEEE"/>
<path d="M348.5 0.0501709L357 8.49996L348.5 16.9497L340 8.49996L348.5 0.0501709Z" fill="#EEEEEE"/>
<path d="M365.5 0.0501709L374 8.49996L365.5 16.9497L357 8.49996L365.5 0.0501709Z" fill="#EEEEEE"/>
<path d="M382.5 0.0501709L391 8.49996L382.5 16.9497L374 8.49996L382.5 0.0501709Z" fill="#EEEEEE"/>
<path d="M399.5 0.0501709L408 8.49996L399.5 16.9497L391 8.49996L399.5 0.0501709Z" fill="#EEEEEE"/>
<path d="M416.5 0.0501709L425 8.49996L416.5 16.9497L408 8.49996L416.5 0.0501709Z" fill="#EEEEEE"/>
<path d="M433.5 0.0501709L442 8.49996L433.5 16.9497L425 8.49996L433.5 0.0501709Z" fill="#EEEEEE"/>
<path d="M450.5 0.0501709L459 8.49996L450.5 16.9497L442 8.49996L450.5 0.0501709Z" fill="#EEEEEE"/>
<path d="M467.5 0.0501709L476 8.49996L467.5 16.9497L459 8.49996L467.5 0.0501709Z" fill="#EEEEEE"/>
<path d="M484.5 0.0501709L493 8.49996L484.5 16.9497L476 8.49996L484.5 0.0501709Z" fill="#EEEEEE"/>
<path d="M501.5 0.0501709L510 8.49996L501.5 16.9497L493 8.49996L501.5 0.0501709Z" fill="#EEEEEE"/>
<path d="M518.5 0.0501709L527 8.49996L518.5 16.9497L510 8.49996L518.5 0.0501709Z" fill="#EEEEEE"/>
<path d="M535.5 0.0501709L544 8.49996L535.5 16.9497L527 8.49996L535.5 0.0501709Z" fill="#EEEEEE"/>
<path d="M552.5 0.0501709L561 8.49996L552.5 16.9497L544 8.49996L552.5 0.0501709Z" fill="#EEEEEE"/>
<path d="M569.5 0.0501709L578 8.49996L569.5 16.9497L561 8.49996L569.5 0.0501709Z" fill="#EEEEEE"/>
<path d="M586.5 0.0501709L595 8.49996L586.5 16.9497L578 8.49996L586.5 0.0501709Z" fill="#EEEEEE"/>
<path d="M603.5 0.0501709L612 8.49996L603.5 16.9497L595 8.49996L603.5 0.0501709Z" fill="#EEEEEE"/>
<path d="M620.5 0.0501709L629 8.49996L620.5 16.9497L612 8.49996L620.5 0.0501709Z" fill="#EEEEEE"/>
<path d="M637.5 0.0501709L646 8.49996L637.5 16.9497L629 8.49996L637.5 0.0501709Z" fill="#EEEEEE"/>
<path d="M654.5 0.0501709L663 8.49996L654.5 16.9497L646 8.49996L654.5 0.0501709Z" fill="#EEEEEE"/>
<path d="M671.5 0.0501709L680 8.49996L671.5 16.9497L663 8.49996L671.5 0.0501709Z" fill="#EEEEEE"/>
</svg>
