<svg width="681" height="407" viewBox="0 0 681 407" fill="none" xmlns="http://www.w3.org/2000/svg">
<path fill-rule="evenodd" clip-rule="evenodd" d="M17.0206 8.47951H16.9593L8.54015 0L0.0210989 8.47951H0V397.54H0.0225637L0.00183295 397.56L8.5076 406.041L17.0129 397.556L16.9968 397.54H17.0189L17.0129 397.546L25.5076 406.041L34.0129 397.556L33.9968 397.54H34.0189L34.0129 397.546L42.5076 406.041L51.0129 397.556L50.9968 397.54H51.0189L51.0129 397.546L59.5076 406.041L68.0129 397.556L67.9968 397.54H68.0189L68.0129 397.546L76.5076 406.041L85.0129 397.556L84.9968 397.54H85.0189L85.0129 397.546L93.5076 406.041L102.013 397.556L101.997 397.54H102.019L102.013 397.546L110.508 406.041L119.013 397.556L118.997 397.54H119.019L119.013 397.546L127.508 406.041L136.013 397.556L135.997 397.54H136.019L136.013 397.546L144.508 406.041L153.013 397.556L152.997 397.54H153.019L153.013 397.546L161.508 406.041L170.013 397.556L169.997 397.54H170.019L170.013 397.546L178.508 406.041L187.013 397.556L186.997 397.54H187.019L187.013 397.546L195.508 406.041L204.013 397.556L203.997 397.54H204.019L204.013 397.546L212.508 406.041L221.013 397.556L220.997 397.54H221.019L221.013 397.546L229.508 406.041L238.013 397.556L237.997 397.54H238.019L238.013 397.546L246.508 406.041L255.013 397.556L254.997 397.54H255.019L255.013 397.546L263.508 406.041L272.013 397.556L271.997 397.54H272.019L272.013 397.546L280.508 406.041L289.013 397.556L288.997 397.54H289.019L289.013 397.546L297.508 406.041L306.013 397.556L305.997 397.54H306.019L306.013 397.546L314.508 406.041L323.013 397.556L322.997 397.54H323.019L323.013 397.546L331.508 406.041L340.013 397.556L339.997 397.54H340.019L340.013 397.546L348.508 406.041L357.013 397.556L356.997 397.54H357.019L357.013 397.546L365.508 406.041L374.013 397.556L373.997 397.54H374.019L374.013 397.546L382.508 406.041L391.013 397.556L390.997 397.54H391.019L391.013 397.546L399.508 406.041L408.013 397.556L407.997 397.54H408.019L408.013 397.546L416.508 406.041L425.013 397.556L424.997 397.54H425.019L425.013 397.546L433.508 406.041L442.013 397.556L441.997 397.54H442.019L442.013 397.546L450.508 406.041L459.013 397.556L458.997 397.54H459.019L459.013 397.546L467.508 406.041L476.013 397.556L475.997 397.54H476.019L476.013 397.546L484.508 406.041L493.013 397.556L492.997 397.54H493.019L493.013 397.546L501.508 406.041L510.013 397.556L509.997 397.54H510.019L510.013 397.546L518.508 406.041L527.013 397.556L526.997 397.54H527.019L527.013 397.546L535.508 406.041L544.013 397.556L543.997 397.54H544.019L544.013 397.546L552.508 406.041L561.013 397.556L560.997 397.54H561.019L561.013 397.546L569.508 406.041L578.013 397.556L577.997 397.54H578.019L578.013 397.546L586.508 406.041L595.013 397.556L594.997 397.54H595.019L595.013 397.546L603.508 406.041L612.013 397.556L611.997 397.54H612.019L612.013 397.546L620.508 406.041L629.013 397.556L628.997 397.54H629.019L629.013 397.546L637.508 406.041L646.013 397.556L645.997 397.54H646.019L646.013 397.546L654.508 406.041L663.013 397.556L662.997 397.54H663.019L663.013 397.546L671.508 406.041L680.013 397.56L679.992 397.54H680V8.49998V8.47951H679.98L671.54 0.0198245L663.041 8.47951H662.959L654.54 0L646.021 8.47951H645.959L637.54 0L629.021 8.47951H628.959L620.54 0L612.021 8.47951H611.959L603.54 0L595.021 8.47951H594.959L586.54 0L578.021 8.47951H577.959L569.54 0L561.021 8.47951H560.959L552.54 0L544.021 8.47951H543.959L535.54 0L527.021 8.47951H526.959L518.54 0L510.021 8.47951H509.959L501.54 0L493.021 8.47951H492.959L484.54 0L476.021 8.47951H475.959L467.54 0L459.021 8.47951H458.959L450.54 0L442.021 8.47951H441.959L433.54 0L425.021 8.47951H424.959L416.54 0L408.021 8.47951H407.959L399.54 0L391.021 8.47951H390.959L382.54 0L374.021 8.47951H373.959L365.54 0L357.021 8.47951H356.959L348.54 0L340.021 8.47951H339.959L331.54 0L323.021 8.47951H322.959L314.54 0L306.021 8.47951H305.959L297.54 0L289.021 8.47951H288.959L280.54 0L272.021 8.47951H271.959L263.54 0L255.021 8.47951H254.959L246.54 0L238.021 8.47951H237.959L229.54 0L221.021 8.47951H220.959L212.54 0L204.021 8.47951H203.959L195.54 0L187.021 8.47951H186.959L178.54 0L170.021 8.47951H169.959L161.54 0L153.021 8.47951H152.959L144.54 0L136.021 8.47951H135.959L127.54 0L119.021 8.47951H118.959L110.54 0L102.021 8.47951H101.959L93.5402 0L85.0206 8.47951H84.9594L76.5402 0L68.0206 8.47951H67.9593L59.5402 0L51.0206 8.47951H50.9593L42.5402 0L34.0206 8.47951H33.9593L25.5402 0L17.0206 8.47951Z" fill="#EEEEEE"/>
</svg>
