<svg width="480" height="88" viewBox="0 0 480 88" fill="none" xmlns="http://www.w3.org/2000/svg">
<path d="M425.707 74V29.7337H437.364V37.3968H437.853C439.484 31.9348 443.56 29.0815 448.533 29.0815C449.755 29.0815 451.304 29.2446 452.364 29.4892V40.25C451.223 39.9239 448.94 39.5978 447.228 39.5978C441.766 39.5978 437.772 43.4294 437.772 48.8098V74H425.707Z" fill="#271E15"/>
<path d="M397.826 74.8968C384.293 74.8968 375.978 66.0924 375.978 52.0707C375.978 38.375 384.375 29.1631 397.337 29.1631C408.995 29.1631 418.125 36.5 418.125 51.5816V55.0055H387.88C387.88 61.6903 391.875 65.8479 398.071 65.8479C402.147 65.8479 405.082 64.0544 406.304 61.3642H417.799C416.087 69.5163 408.75 74.8968 397.826 74.8968ZM387.88 47.424H406.712C406.712 42.0435 402.962 38.212 397.582 38.212C392.038 38.212 388.084 42.3288 387.88 47.424Z" fill="#271E15"/>
<path d="M368.397 14.9783V74H356.332V14.9783H368.397Z" fill="#271E15"/>
<path d="M346.957 14.9783V74H334.891V14.9783H346.957Z" fill="#271E15"/>
<path d="M307.011 74.8968C293.478 74.8968 285.163 66.0924 285.163 52.0707C285.163 38.375 293.56 29.1631 306.522 29.1631C318.179 29.1631 327.31 36.5 327.31 51.5816V55.0055H297.065C297.065 61.6903 301.06 65.8479 307.255 65.8479C311.332 65.8479 314.266 64.0544 315.489 61.3642H326.984C325.272 69.5163 317.935 74.8968 307.011 74.8968ZM297.065 47.424H315.897C315.897 42.0435 312.147 38.212 306.766 38.212C301.223 38.212 297.269 42.3288 297.065 47.424Z" fill="#271E15"/>
<path d="M237.717 25.087V14.9783H286.06V25.087H267.962V74H255.815V25.087H237.717Z" fill="#271E15"/>
<path d="M191.168 74.8968C177.799 74.8968 169.484 65.6848 169.484 51.9892C169.484 38.2935 177.799 29.1631 191.168 29.1631C204.538 29.1631 212.935 38.2935 212.935 51.9892C212.935 65.6848 204.538 74.8968 191.168 74.8968ZM191.25 65.5218C197.446 65.5218 200.625 59.7337 200.625 51.9892C200.625 44.1631 197.446 38.375 191.25 38.375C184.973 38.375 181.712 44.1631 181.712 51.9892C181.712 59.7337 184.973 65.5218 191.25 65.5218Z" fill="#271E15"/>
<path d="M164.185 29.7337V38.7826H155.87V60.3859C155.87 63.8913 157.581 64.788 160.027 64.8696C161.25 64.8696 163.37 64.788 164.837 64.625V74.163C163.533 74.4076 161.413 74.5706 158.397 74.5706C149.674 74.5706 143.723 70.6576 143.804 62.0978V38.7826H137.69V29.7337H143.804V19.1359H155.87V29.7337H164.185Z" fill="#271E15"/>
<path d="M133.288 29.7337V38.7826H124.973V60.3859C124.973 63.8913 126.685 64.788 129.13 64.8696C130.353 64.8696 132.473 64.788 133.94 64.625V74.163C132.636 74.4076 130.516 74.5706 127.5 74.5706C118.777 74.5706 112.826 70.6576 112.908 62.0978V38.7826H106.793V29.7337H112.908V19.1359H124.973V29.7337H133.288Z" fill="#271E15"/>
<path d="M80.625 74.8968C67.2554 74.8968 58.9402 65.6848 58.9402 51.9892C58.9402 38.2935 67.2554 29.1631 80.625 29.1631C93.9945 29.1631 102.391 38.2935 102.391 51.9892C102.391 65.6848 93.9945 74.8968 80.625 74.8968ZM80.7065 65.5218C86.9021 65.5218 90.0815 59.7337 90.0815 51.9892C90.0815 44.1631 86.9021 38.375 80.7065 38.375C74.4293 38.375 71.1684 44.1631 71.1684 51.9892C71.1684 59.7337 74.4293 65.5218 80.7065 65.5218Z" fill="#271E15"/>
<path d="M15.4077 74V14.9783H27.636V63.8913H53.0708V74H15.4077Z" fill="#271E15"/>
<path d="M26.087 40.7392C26.087 47.9429 20.2472 53.7826 13.0435 53.7826C5.83976 53.7826 0 47.9429 0 40.7392C0 33.5354 5.83976 27.6957 13.0435 27.6957C20.2472 27.6957 26.087 33.5354 26.087 40.7392Z" fill="#271E15"/>
<path d="M262.826 47.9131C262.826 55.1168 256.986 60.9566 249.783 60.9566C242.579 60.9566 236.739 55.1168 236.739 47.9131C236.739 40.7094 242.579 34.8696 249.783 34.8696C256.986 34.8696 262.826 40.7094 262.826 47.9131Z" fill="#271E15"/>
<path d="M106.957 74C106.957 81.2037 101.117 87.0435 93.9131 87.0435C86.7094 87.0435 80.8696 81.2037 80.8696 74C80.8696 66.7963 86.7094 60.9565 93.9131 60.9565C101.117 60.9565 106.957 66.7963 106.957 74Z" fill="#271E15"/>
<path d="M396.522 27.0435C396.522 34.2472 390.682 40.087 383.478 40.087C376.275 40.087 370.435 34.2472 370.435 27.0435C370.435 19.8398 376.275 14 383.478 14C390.682 14 396.522 19.8398 396.522 27.0435Z" fill="#271E15"/>
<path d="M172.826 14C172.826 21.2037 166.986 27.0435 159.783 27.0435C152.579 27.0435 146.739 21.2037 146.739 14C146.739 6.79631 152.579 0.956543 159.783 0.956543C166.986 0.956543 172.826 6.79631 172.826 14Z" fill="#271E15"/>
<path d="M480 60.9566C480 68.1603 474.16 74 466.957 74C459.753 74 453.913 68.1603 453.913 60.9566C453.913 53.7528 459.753 47.9131 466.957 47.9131C474.16 47.9131 480 53.7528 480 60.9566Z" fill="#271E15"/>
<path d="M352.826 74C352.826 81.2037 346.986 87.0435 339.783 87.0435C332.579 87.0435 326.739 81.2037 326.739 74C326.739 66.7963 332.579 60.9565 339.783 60.9565C346.986 60.9565 352.826 66.7963 352.826 74Z" fill="#271E15"/>
</svg>
