<svg width="496" height="116" viewBox="0 0 496 116" fill="none" xmlns="http://www.w3.org/2000/svg">
<rect width="496" height="116" fill="#87B3F9"/>
<path d="M433.707 88V43.7337H445.364V51.3968H445.853C447.484 45.9348 451.56 43.0815 456.533 43.0815C457.755 43.0815 459.304 43.2446 460.364 43.4892V54.25C459.223 53.9239 456.94 53.5978 455.228 53.5978C449.766 53.5978 445.772 57.4294 445.772 62.8098V88H433.707Z" fill="#271E15"/>
<path d="M405.826 88.8968C392.293 88.8968 383.978 80.0924 383.978 66.0707C383.978 52.375 392.375 43.1631 405.337 43.1631C416.995 43.1631 426.125 50.5 426.125 65.5816V69.0055H395.88C395.88 75.6903 399.875 79.8479 406.071 79.8479C410.147 79.8479 413.082 78.0544 414.304 75.3642H425.799C424.087 83.5163 416.75 88.8968 405.826 88.8968ZM395.88 61.424H414.712C414.712 56.0435 410.962 52.212 405.582 52.212C400.038 52.212 396.084 56.3288 395.88 61.424Z" fill="#271E15"/>
<path d="M376.397 28.9783V88H364.332V28.9783H376.397Z" fill="#271E15"/>
<path d="M354.957 28.9783V88H342.891V28.9783H354.957Z" fill="#271E15"/>
<path d="M315.011 88.8968C301.478 88.8968 293.163 80.0924 293.163 66.0707C293.163 52.375 301.56 43.1631 314.522 43.1631C326.179 43.1631 335.31 50.5 335.31 65.5816V69.0055H305.065C305.065 75.6903 309.06 79.8479 315.255 79.8479C319.332 79.8479 322.266 78.0544 323.489 75.3642H334.984C333.272 83.5163 325.935 88.8968 315.011 88.8968ZM305.065 61.424H323.897C323.897 56.0435 320.147 52.212 314.766 52.212C309.223 52.212 305.269 56.3288 305.065 61.424Z" fill="#271E15"/>
<path d="M245.717 39.087V28.9783H294.06V39.087H275.962V88H263.815V39.087H245.717Z" fill="#271E15"/>
<path d="M199.168 88.8968C185.799 88.8968 177.484 79.6848 177.484 65.9892C177.484 52.2935 185.799 43.1631 199.168 43.1631C212.538 43.1631 220.935 52.2935 220.935 65.9892C220.935 79.6848 212.538 88.8968 199.168 88.8968ZM199.25 79.5218C205.446 79.5218 208.625 73.7337 208.625 65.9892C208.625 58.1631 205.446 52.375 199.25 52.375C192.973 52.375 189.712 58.1631 189.712 65.9892C189.712 73.7337 192.973 79.5218 199.25 79.5218Z" fill="#271E15"/>
<path d="M172.185 43.7337V52.7826H163.87V74.3859C163.87 77.8913 165.581 78.788 168.027 78.8696C169.25 78.8696 171.37 78.788 172.837 78.625V88.163C171.533 88.4076 169.413 88.5706 166.397 88.5706C157.674 88.5706 151.723 84.6576 151.804 76.0978V52.7826H145.69V43.7337H151.804V33.1359H163.87V43.7337H172.185Z" fill="#271E15"/>
<path d="M141.288 43.7337V52.7826H132.973V74.3859C132.973 77.8913 134.685 78.788 137.13 78.8696C138.353 78.8696 140.473 78.788 141.94 78.625V88.163C140.636 88.4076 138.516 88.5706 135.5 88.5706C126.777 88.5706 120.826 84.6576 120.908 76.0978V52.7826H114.793V43.7337H120.908V33.1359H132.973V43.7337H141.288Z" fill="#271E15"/>
<path d="M88.625 88.8968C75.2554 88.8968 66.9402 79.6848 66.9402 65.9892C66.9402 52.2935 75.2554 43.1631 88.625 43.1631C101.995 43.1631 110.391 52.2935 110.391 65.9892C110.391 79.6848 101.995 88.8968 88.625 88.8968ZM88.7065 79.5218C94.9021 79.5218 98.0815 73.7337 98.0815 65.9892C98.0815 58.1631 94.9021 52.375 88.7065 52.375C82.4293 52.375 79.1684 58.1631 79.1684 65.9892C79.1684 73.7337 82.4293 79.5218 88.7065 79.5218Z" fill="#271E15"/>
<path d="M23.4077 88V28.9783H35.636V77.8913H61.0708V88H23.4077Z" fill="#271E15"/>
<path d="M34.087 54.7392C34.087 61.9429 28.2472 67.7826 21.0435 67.7826C13.8398 67.7826 8 61.9429 8 54.7392C8 47.5354 13.8398 41.6957 21.0435 41.6957C28.2472 41.6957 34.087 47.5354 34.087 54.7392Z" fill="#271E15"/>
<path d="M270.826 61.9131C270.826 69.1168 264.986 74.9566 257.783 74.9566C250.579 74.9566 244.739 69.1168 244.739 61.9131C244.739 54.7094 250.579 48.8696 257.783 48.8696C264.986 48.8696 270.826 54.7094 270.826 61.9131Z" fill="#271E15"/>
<path d="M114.957 88C114.957 95.2037 109.117 101.043 101.913 101.043C94.7094 101.043 88.8696 95.2037 88.8696 88C88.8696 80.7963 94.7094 74.9565 101.913 74.9565C109.117 74.9565 114.957 80.7963 114.957 88Z" fill="#271E15"/>
<path d="M404.522 41.0435C404.522 48.2472 398.682 54.087 391.478 54.087C384.275 54.087 378.435 48.2472 378.435 41.0435C378.435 33.8398 384.275 28 391.478 28C398.682 28 404.522 33.8398 404.522 41.0435Z" fill="#271E15"/>
<path d="M180.826 28C180.826 35.2037 174.986 41.0435 167.783 41.0435C160.579 41.0435 154.739 35.2037 154.739 28C154.739 20.7963 160.579 14.9565 167.783 14.9565C174.986 14.9565 180.826 20.7963 180.826 28Z" fill="#271E15"/>
<path d="M488 74.9566C488 82.1603 482.16 88 474.957 88C467.753 88 461.913 82.1603 461.913 74.9566C461.913 67.7528 467.753 61.9131 474.957 61.9131C482.16 61.9131 488 67.7528 488 74.9566Z" fill="#271E15"/>
<path d="M360.826 88C360.826 95.2037 354.986 101.043 347.783 101.043C340.579 101.043 334.739 95.2037 334.739 88C334.739 80.7963 340.579 74.9565 347.783 74.9565C354.986 74.9565 360.826 80.7963 360.826 88Z" fill="#271E15"/>
</svg>
