<svg width="480" height="88" viewBox="0 0 480 88" fill="none" xmlns="http://www.w3.org/2000/svg">
<path d="M425.707 74V29.7337H437.364V37.3968H437.853C439.484 31.9348 443.56 29.0815 448.533 29.0815C449.755 29.0815 451.304 29.2446 452.364 29.4892V40.25C451.223 39.9239 448.94 39.5978 447.228 39.5978C441.766 39.5978 437.772 43.4294 437.772 48.8098V74H425.707Z" fill="#271E15"/>
<path d="M397.826 74.8968C384.293 74.8968 375.978 66.0924 375.978 52.0707C375.978 38.375 384.375 29.1631 397.337 29.1631C408.995 29.1631 418.125 36.5 418.125 51.5816V55.0055H387.88C387.88 61.6903 391.875 65.8479 398.071 65.8479C402.147 65.8479 405.082 64.0544 406.304 61.3642H417.799C416.087 69.5163 408.75 74.8968 397.826 74.8968ZM387.88 47.424H406.712C406.712 42.0435 402.962 38.212 397.582 38.212C392.038 38.212 388.084 42.3288 387.88 47.424Z" fill="#271E15"/>
<path d="M368.397 14.9783V74H356.332V14.9783H368.397Z" fill="#271E15"/>
<path d="M346.957 14.9783V74H334.891V14.9783H346.957Z" fill="#271E15"/>
<path d="M307.011 74.8968C293.478 74.8968 285.163 66.0924 285.163 52.0707C285.163 38.375 293.56 29.1631 306.522 29.1631C318.179 29.1631 327.31 36.5 327.31 51.5816V55.0055H297.065C297.065 61.6903 301.06 65.8479 307.255 65.8479C311.332 65.8479 314.266 64.0544 315.489 61.3642H326.984C325.272 69.5163 317.935 74.8968 307.011 74.8968ZM297.065 47.424H315.897C315.897 42.0435 312.147 38.212 306.766 38.212C301.223 38.212 297.269 42.3288 297.065 47.424Z" fill="#271E15"/>
<path d="M237.717 25.087V14.9783H286.06V25.087H267.962V74H255.815V25.087H237.717Z" fill="#271E15"/>
<path d="M191.168 74.8968C177.799 74.8968 169.484 65.6848 169.484 51.9892C169.484 38.2935 177.799 29.1631 191.168 29.1631C204.538 29.1631 212.935 38.2935 212.935 51.9892C212.935 65.6848 204.538 74.8968 191.168 74.8968ZM191.25 65.5218C197.446 65.5218 200.625 59.7337 200.625 51.9892C200.625 44.1631 197.446 38.375 191.25 38.375C184.973 38.375 181.712 44.1631 181.712 51.9892C181.712 59.7337 184.973 65.5218 191.25 65.5218Z" fill="#271E15"/>
<path d="M164.185 29.7337V38.7826H155.87V60.3859C155.87 63.8913 157.581 64.788 160.027 64.8696C161.25 64.8696 163.37 64.788 164.837 64.625V74.163C163.533 74.4076 161.413 74.5706 158.397 74.5706C149.674 74.5706 143.723 70.6576 143.804 62.0978V38.7826H137.69V29.7337H143.804V19.1359H155.87V29.7337H164.185Z" fill="#271E15"/>
<path d="M133.288 29.7337V38.7826H124.973V60.3859C124.973 63.8913 126.685 64.788 129.13 64.8696C130.353 64.8696 132.473 64.788 133.94 64.625V74.163C132.636 74.4076 130.516 74.5706 127.5 74.5706C118.777 74.5706 112.826 70.6576 112.908 62.0978V38.7826H106.793V29.7337H112.908V19.1359H124.973V29.7337H133.288Z" fill="#271E15"/>
<path d="M80.625 74.8968C67.2554 74.8968 58.9402 65.6848 58.9402 51.9892C58.9402 38.2935 67.2554 29.1631 80.625 29.1631C93.9945 29.1631 102.391 38.2935 102.391 51.9892C102.391 65.6848 93.9945 74.8968 80.625 74.8968ZM80.7065 65.5218C86.9021 65.5218 90.0815 59.7337 90.0815 51.9892C90.0815 44.1631 86.9021 38.375 80.7065 38.375C74.4293 38.375 71.1684 44.1631 71.1684 51.9892C71.1684 59.7337 74.4293 65.5218 80.7065 65.5218Z" fill="#271E15"/>
<path d="M15.4077 74V14.9783H27.636V63.8913H53.0708V74H15.4077Z" fill="#271E15"/>
<path d="M25.587 40.7392C25.587 47.6667 19.971 53.2826 13.0435 53.2826C6.11591 53.2826 0.5 47.6667 0.5 40.7392C0.5 33.8116 6.11591 28.1957 13.0435 28.1957C19.971 28.1957 25.587 33.8116 25.587 40.7392Z" fill="#FFDF90" stroke="black"/>
<path d="M262.326 47.913C262.326 54.8406 256.71 60.4565 249.783 60.4565C242.855 60.4565 237.239 54.8406 237.239 47.913C237.239 40.9855 242.855 35.3696 249.783 35.3696C256.71 35.3696 262.326 40.9855 262.326 47.913Z" fill="#FFDF90" stroke="black"/>
<path d="M106.457 74C106.457 80.9276 100.841 86.5435 93.9131 86.5435C86.9855 86.5435 81.3696 80.9276 81.3696 74C81.3696 67.0724 86.9855 61.4565 93.9131 61.4565C100.841 61.4565 106.457 67.0724 106.457 74Z" fill="#87B3F9" stroke="black"/>
<path d="M396.022 27.0435C396.022 33.971 390.406 39.587 383.478 39.587C376.551 39.587 370.935 33.971 370.935 27.0435C370.935 20.1159 376.551 14.5 383.478 14.5C390.406 14.5 396.022 20.1159 396.022 27.0435Z" fill="#87B3F9" stroke="black"/>
<path d="M172.326 14C172.326 20.9276 166.71 26.5435 159.783 26.5435C152.855 26.5435 147.239 20.9276 147.239 14C147.239 7.07245 152.855 1.45654 159.783 1.45654C166.71 1.45654 172.326 7.07245 172.326 14Z" fill="#E75720" stroke="black"/>
<path d="M479.5 60.9566C479.5 67.8841 473.884 73.5 466.957 73.5C460.029 73.5 454.413 67.8841 454.413 60.9566C454.413 54.029 460.029 48.4131 466.957 48.4131C473.884 48.4131 479.5 54.029 479.5 60.9566Z" fill="#271E15" stroke="black"/>
<path d="M352.326 74C352.326 80.9276 346.71 86.5435 339.783 86.5435C332.855 86.5435 327.239 80.9276 327.239 74C327.239 67.0724 332.855 61.4565 339.783 61.4565C346.71 61.4565 352.326 67.0724 352.326 74Z" fill="#CBC344" stroke="black"/>
</svg>
